<svg width="256" height="288" viewBox="0 0 256 288" fill="none" xmlns="http://www.w3.org/2000/svg">
<path d="M114.532 176.091V175.239C114.627 166.195 115.574 158.998 117.373 153.648C119.172 148.297 121.729 143.965 125.044 140.651C128.358 137.336 132.335 134.282 136.975 131.489C139.769 129.784 142.279 127.772 144.504 125.452C146.729 123.084 148.481 120.362 149.76 117.284C151.085 114.206 151.748 110.797 151.748 107.057C151.748 102.417 150.659 98.392 148.481 94.983C146.303 91.5739 143.391 88.946 139.745 87.0994C136.1 85.2528 132.051 84.3295 127.6 84.3295C123.718 84.3295 119.977 85.1345 116.379 86.7443C112.78 88.3542 109.774 90.8873 107.359 94.3438C104.944 97.8002 103.547 102.322 103.169 107.909H85.271C85.6497 99.8598 87.7331 92.9706 91.521 87.2415C95.3562 81.5123 100.399 77.1326 106.649 74.1023C112.946 71.072 119.93 69.5568 127.6 69.5568C135.934 69.5568 143.178 71.214 149.333 74.5284C155.536 77.8428 160.318 82.3883 163.68 88.1648C167.089 93.9413 168.794 100.523 168.794 107.909C168.794 113.117 167.989 117.829 166.379 122.043C164.816 126.257 162.544 130.021 159.561 133.335C156.625 136.65 153.074 139.585 148.907 142.142C144.741 144.746 141.403 147.492 138.893 150.381C136.384 153.222 134.561 156.607 133.424 160.537C132.288 164.467 131.672 169.367 131.578 175.239V176.091H114.532ZM123.623 218.136C120.119 218.136 117.113 216.882 114.603 214.372C112.094 211.863 110.839 208.856 110.839 205.352C110.839 201.848 112.094 198.842 114.603 196.332C117.113 193.823 120.119 192.568 123.623 192.568C127.127 192.568 130.134 193.823 132.643 196.332C135.153 198.842 136.407 201.848 136.407 205.352C136.407 207.672 135.815 209.803 134.632 211.744C133.495 213.686 131.957 215.248 130.015 216.432C128.121 217.568 125.991 218.136 123.623 218.136Z" fill="white"/>
</svg>
