<svg width="256" height="361" viewBox="0 0 256 361" fill="none" xmlns="http://www.w3.org/2000/svg">
<path d="M127.844 324.822L23.6618 295.901L0.445312 35.5H255.555L232.314 295.86L127.844 324.822Z" fill="#264DE4"/>
<path d="M212.417 279.281L232.278 56.792H128V302.685L212.417 279.281Z" fill="#2965F1"/>
<path d="M53.6689 153.37L56.5314 185.307H128V153.37H53.6689Z" fill="#EBEBEB"/>
<path d="M47.917 88.7295L50.8202 120.667H128V88.7295H47.917Z" fill="#EBEBEB"/>
<path d="M128 236.315L127.86 236.352L92.2915 226.748L90.0178 201.276H57.958L62.4324 251.422L127.853 269.583L128 269.543V236.315Z" fill="#EBEBEB"/>
<path d="M202.127 153.371L207.892 88.7295H127.89V120.667H172.892L169.986 153.371H127.89V185.308H167.217L163.51 226.728L127.89 236.342V269.568L193.362 251.422L193.843 246.027L201.348 161.947L202.127 153.371Z" fill="white"/>
</svg>
