<svg width="256" height="361" viewBox="0 0 256 361" fill="none" xmlns="http://www.w3.org/2000/svg">
<path d="M255.555 35.5L232.314 295.86L127.844 324.822L23.6618 295.901L0.445312 35.5H255.555Z" fill="#E44D26"/>
<path d="M128 302.685L212.417 279.281L232.278 56.792H128V302.685Z" fill="#F16529"/>
<path d="M82.8202 120.667H128V88.7295H47.917L48.6815 97.2978L56.531 185.308H128V153.371H85.7389L82.8202 120.667Z" fill="#EBEBEB"/>
<path d="M90.0178 201.276H57.958L62.4324 251.422L127.853 269.583L128 269.543V236.315L127.86 236.352L92.2915 226.748L90.0178 201.276Z" fill="#EBEBEB"/>
<path d="M127.89 185.307H167.217L163.51 226.727L127.89 236.341V269.567L193.362 251.422L193.843 246.026L201.348 161.946L202.127 153.37H127.89V185.307Z" fill="white"/>
<path d="M127.89 120.589V120.667H205.033L205.674 113.488L207.129 97.2978L207.892 88.7295H127.89V120.589Z" fill="white"/>
</svg>
