<svg width="512" height="349" viewBox="0 0 512 349" fill="none" xmlns="http://www.w3.org/2000/svg">
<path d="M267.624 48C324.276 48 352.605 84.2247 352.605 156.635C352.605 195.984 344.086 225.706 327.063 245.787C323.995 249.455 320.605 252.625 317.035 255.562L357.127 275.401L357.087 275.399L342.853 300L290.643 269.512C281.988 272.077 272.466 273.359 262.089 273.359C234.272 273.359 213.494 265.245 199.755 249.04C184.675 231.111 177.141 202.887 177.141 164.413C177.141 125.287 185.644 95.6775 202.671 75.5722C218.179 57.1819 239.835 48 267.624 48ZM94.1361 48.3198C114.385 48.3198 132.798 53.7425 149.381 64.5489L140.957 83.3325C126.767 77.2956 112.774 74.2653 98.9786 74.2653C87.7844 74.2653 79.1579 76.9623 73.1441 82.3878C67.0965 87.7664 63.3576 94.6881 63.3576 103.124C63.3576 116.087 72.5866 127.33 89.6257 136.83C94.2097 139.324 100.18 142.651 106.315 146.098L107.586 146.813C107.799 146.932 108.011 147.051 108.223 147.171L109.497 147.888C109.709 148.008 109.921 148.127 110.133 148.247L111.404 148.964C124.304 156.242 136.441 163.189 136.441 163.189C153.48 175.293 161.971 188.198 161.971 209.453C161.971 228.016 155.175 243.254 141.627 255.177C128.068 267.047 109.852 272.998 87.0411 272.998C65.7057 272.998 45.0291 266.149 25 252.562L34.3698 233.761C51.606 242.407 67.2035 246.724 81.2076 246.724C94.3444 246.724 104.626 243.79 112.065 237.994C119.486 232.156 123.935 224.014 123.935 213.687C123.935 200.691 114.903 189.582 98.3311 180.263C94.0282 177.893 88.5169 174.799 82.8173 171.575L81.5481 170.857C79.2169 169.537 76.8671 168.202 74.5675 166.894L73.3185 166.183C62.1306 159.814 52.4562 154.249 52.4562 154.249C35.8901 142.123 27.5846 129.111 27.5846 107.673C27.5846 89.9429 33.7786 75.6118 46.1496 64.7082C58.5489 53.7826 74.5462 48.3198 94.1361 48.3198ZM419.185 51.2478V243.198H488V270.122H384.285V51.2478H419.185ZM264.059 74.9174C230.674 74.9174 213.973 102.492 213.973 157.605C213.973 189.175 218.399 212.07 227.233 226.337C235.415 239.543 248.231 246.131 265.681 246.131C299.067 246.131 315.768 218.343 315.768 162.788C315.768 131.66 311.342 108.963 302.518 94.6893C294.325 81.5125 281.515 74.9174 264.059 74.9174Z" fill="white"/>
</svg>
